<?xml version="1.0" encoding="UTF-8" standalone="no"?>
<svg
   xmlns:dc="http://purl.org/dc/elements/1.1/"
   xmlns:cc="http://creativecommons.org/ns#"
   xmlns:rdf="http://www.w3.org/1999/02/22-rdf-syntax-ns#"
   xmlns:svg="http://www.w3.org/2000/svg"
   xmlns="http://www.w3.org/2000/svg"
   id="svg8"
   version="1.1"
   viewBox="0 0 62.60273 80.929939"
   height="80.929939mm"
   width="62.60273mm">
  <defs
     id="defs2" />
  <metadata
     id="metadata5">
    <rdf:RDF>
      <cc:Work
         rdf:about="">
        <dc:format>image/svg+xml</dc:format>
        <dc:type
           rdf:resource="http://purl.org/dc/dcmitype/StillImage" />
        <dc:title></dc:title>
      </cc:Work>
    </rdf:RDF>
  </metadata>
  <g
     transform="translate(-36.645813,-109.55248)"
     id="layer1">
    <g
       transform="translate(0,0.5993136)"
       id="g4544">
      <circle
         r="13.334727"
         cy="130.09116"
         cx="50.641998"
         id="circle4536"
         style="fill:none;fill-opacity:1;stroke:#000000;stroke-width:1.32291663;stroke-miterlimit:4;stroke-dasharray:none;stroke-opacity:1" />
      <ellipse
         ry="4.2326522"
         rx="4.1202812"
         cy="126.75748"
         cx="50.641998"
         id="ellipse4538"
         style="fill:none;fill-opacity:1;stroke:#000000;stroke-width:1.32291663;stroke-miterlimit:4;stroke-dasharray:none;stroke-opacity:1" />
      <circle
         r="13.334727"
         cy="130.09116"
         cx="50.641998"
         id="circle4540"
         style="fill:none;fill-opacity:1;stroke:#000000;stroke-width:1.32291663;stroke-miterlimit:4;stroke-dasharray:none;stroke-opacity:1" />
      <path
         id="path4542"
         d="m 50.64178,131.81411 a 6.9295631,8.8024175 0 0 0 -6.929292,8.80256 6.9295631,8.8024175 0 0 0 0.04082,0.87281 13.334727,13.334727 0 0 0 6.888467,1.93632 13.334727,13.334727 0 0 0 6.895187,-1.93632 6.9295631,8.8024175 0 0 0 0.03462,-0.87281 6.9295631,8.8024175 0 0 0 -6.929811,-8.80256 z"
         style="fill:none;fill-opacity:1;stroke:#000000;stroke-width:1.32291663;stroke-miterlimit:4;stroke-dasharray:none;stroke-opacity:1" />
    </g>
    <g
       transform="translate(34.61036,0.5993136)"
       id="g4554">
      <circle
         r="13.334727"
         cy="130.09116"
         cx="50.641998"
         id="circle4546"
         style="fill:none;fill-opacity:1;stroke:#000000;stroke-width:1.32291663;stroke-miterlimit:4;stroke-dasharray:none;stroke-opacity:1" />
      <ellipse
         ry="4.2326522"
         rx="4.1202812"
         cy="126.75748"
         cx="50.641998"
         id="ellipse4548"
         style="fill:none;fill-opacity:1;stroke:#000000;stroke-width:1.32291663;stroke-miterlimit:4;stroke-dasharray:none;stroke-opacity:1" />
      <circle
         r="13.334727"
         cy="130.09116"
         cx="50.641998"
         id="circle4550"
         style="fill:none;fill-opacity:1;stroke:#000000;stroke-width:1.32291663;stroke-miterlimit:4;stroke-dasharray:none;stroke-opacity:1" />
      <path
         id="path4552"
         d="m 50.64178,131.81411 a 6.9295631,8.8024175 0 0 0 -6.929292,8.80256 6.9295631,8.8024175 0 0 0 0.04082,0.87281 13.334727,13.334727 0 0 0 6.888467,1.93632 13.334727,13.334727 0 0 0 6.895187,-1.93632 6.9295631,8.8024175 0 0 0 0.03462,-0.87281 6.9295631,8.8024175 0 0 0 -6.929811,-8.80256 z"
         style="fill:none;fill-opacity:1;stroke:#000000;stroke-width:1.32291663;stroke-miterlimit:4;stroke-dasharray:none;stroke-opacity:1" />
    </g>
    <circle
       r="13.334727"
       cy="163.05341"
       cx="50.641998"
       id="circle4596"
       style="fill:none;fill-opacity:1;stroke:#000000;stroke-width:1.32291663;stroke-miterlimit:4;stroke-dasharray:1.32291667, 1.32291667;stroke-dashoffset:0;stroke-opacity:1" />
    <path
       id="circle4556"
       transform="scale(0.26458333)"
       d="m 189.57422,689.39453 -2.7168,0.14063 -0.125,0.008 -0.125,0.0137 -2.25195,0.34766 0.75195,4.94531 2.15625,-0.33203 2.56836,-0.125 z m 5.24805,0.008 -0.25,4.99805 2.43554,0.11719 2.28125,0.34765 0.75196,-4.93945 -2.37696,-0.36914 -0.125,-0.0156 -0.125,-0.008 z m -15.61133,1.52149 -2.67969,0.69336 -0.12695,0.0293 -0.10938,0.0449 -2.09765,0.76757 1.7207,4.69532 1.9707,-0.72461 2.56836,-0.66407 z m 25.97656,0.0352 -1.24805,4.84375 2.44336,0.62696 2.09571,0.76758 1.71289,-4.70313 -2.20703,-0.80273 -0.11719,-0.0449 -0.11914,-0.0312 z m -35.82422,3.51563 -2.33398,1.12891 -0.10938,0.0508 -0.10351,0.0664 -2.06055,1.24805 2.59961,4.27344 1.94141,-1.17969 2.23632,-1.07812 z m 45.65625,0.0586 -2.16992,4.50196 2.13281,1.02734 2.04492,1.24609 2.59961,-4.27343 -2.17187,-1.31446 -0.10352,-0.0664 -0.10156,-0.0508 z m -54.5957,5.36719 -1.83789,1.37891 -0.0977,0.0664 -0.0879,0.082 -2,1.81641 3.35938,3.70508 1.93359,-1.75781 1.72656,-1.28321 z m 63.52734,0.0723 -2.99609,4.00976 1.62304,1.20899 2.03126,1.83789 3.35742,-3.69727 -2.08789,-1.9043 -0.0898,-0.082 -0.0957,-0.0664 z m -71.22656,6.99804 -1.33008,1.46289 -0.0801,0.0879 -0.0664,0.0957 -1.81641,2.42187 4,2.9961 1.7207,-2.30274 1.26954,-1.39453 z m 78.91211,0.0957 -3.69922,3.35937 1.14453,1.26172 1.83008,2.44336 4.00977,-2.98828 -1.89063,-2.52539 -0.0742,-0.0957 -0.0801,-0.0879 z m -85.07617,8.34961 -0.87891,1.43164 -0.0586,0.10351 -0.0527,0.11133 -1.39062,2.87109 h 5.55859 l 0.29102,-0.60547 0.79687,-1.32031 z m 91.22461,0.10351 -4.27344,2.59766 0.73047,1.21093 0.29297,0.60547 h 5.55078 l -1.37696,-2.87109 -0.0527,-0.11133 -0.0664,-0.10351 z"
       style="color:#000000;font-style:normal;font-variant:normal;font-weight:normal;font-stretch:normal;font-size:medium;line-height:normal;font-family:sans-serif;font-variant-ligatures:normal;font-variant-position:normal;font-variant-caps:normal;font-variant-numeric:normal;font-variant-alternates:normal;font-feature-settings:normal;text-indent:0;text-align:start;text-decoration:none;text-decoration-line:none;text-decoration-style:solid;text-decoration-color:#000000;letter-spacing:normal;word-spacing:normal;text-transform:none;writing-mode:lr-tb;direction:ltr;text-orientation:mixed;dominant-baseline:auto;baseline-shift:baseline;text-anchor:start;white-space:normal;shape-padding:0;clip-rule:nonzero;display:inline;overflow:visible;visibility:visible;opacity:1;isolation:auto;mix-blend-mode:normal;color-interpolation:sRGB;color-interpolation-filters:linearRGB;solid-color:#000000;solid-opacity:1;vector-effect:none;fill:#000000;fill-opacity:1;fill-rule:nonzero;stroke:none;stroke-width:5;stroke-linecap:butt;stroke-linejoin:miter;stroke-miterlimit:4;stroke-dasharray:5.00000001, 5.00000001;stroke-dashoffset:0;stroke-opacity:1;color-rendering:auto;image-rendering:auto;shape-rendering:auto;text-rendering:auto;enable-background:accumulate" />
    <ellipse
       style="fill:none;fill-opacity:1;stroke:#000000;stroke-width:1.32291663;stroke-miterlimit:4;stroke-dasharray:none;stroke-opacity:1"
       id="ellipse4558"
       cx="50.641998"
       cy="159.71973"
       rx="4.1202812"
       ry="4.2326522" />
    <path
       id="circle4576"
       transform="scale(0.26458333)"
       d="m 191.4043,563.36328 c -29.18569,0 -52.89844,23.71278 -52.89844,52.89844 0,29.1857 23.71275,52.89844 52.89844,52.89844 0.3791,0 0.75364,-0.0213 1.13086,-0.0293 v -4.99609 c -0.37698,0.009 -0.75176,0.0293 -1.13086,0.0293 -26.48349,0 -47.90039,-21.41885 -47.90039,-47.90234 0,-26.48345 21.4169,-47.89258 47.90039,-47.89258 0.3791,0 2.28589,0.051 2.66287,0.0597 l 0.18263,-4.99571 c -0.37722,-0.008 -2.4664,-0.0698 -2.8455,-0.0698 z"
       style="color:#000000;font-style:normal;font-variant:normal;font-weight:normal;font-stretch:normal;font-size:medium;line-height:normal;font-family:sans-serif;font-variant-ligatures:normal;font-variant-position:normal;font-variant-caps:normal;font-variant-numeric:normal;font-variant-alternates:normal;font-feature-settings:normal;text-indent:0;text-align:start;text-decoration:none;text-decoration-line:none;text-decoration-style:solid;text-decoration-color:#000000;letter-spacing:normal;word-spacing:normal;text-transform:none;writing-mode:lr-tb;direction:ltr;text-orientation:mixed;dominant-baseline:auto;baseline-shift:baseline;text-anchor:start;white-space:normal;shape-padding:0;clip-rule:nonzero;display:inline;overflow:visible;visibility:visible;opacity:1;isolation:auto;mix-blend-mode:normal;color-interpolation:sRGB;color-interpolation-filters:linearRGB;solid-color:#000000;solid-opacity:1;vector-effect:none;fill:#000000;fill-opacity:1;fill-rule:nonzero;stroke:none;stroke-width:5;stroke-linecap:butt;stroke-linejoin:miter;stroke-miterlimit:4;stroke-dasharray:none;stroke-dashoffset:0;stroke-opacity:1;color-rendering:auto;image-rendering:auto;shape-rendering:auto;text-rendering:auto;enable-background:accumulate" />
    <path
       style="fill:none;fill-opacity:1;stroke:#000000;stroke-width:1.32291663;stroke-miterlimit:4;stroke-dasharray:none;stroke-opacity:1"
       d="m 50.64178,164.77636 a 6.9295631,8.8024175 0 0 0 -6.929292,8.80256 6.9295631,8.8024175 0 0 0 0.04082,0.87281 13.334727,13.334727 0 0 0 6.888467,1.93632 13.334727,13.334727 0 0 0 6.895187,-1.93632 6.9295631,8.8024175 0 0 0 0.03462,-0.87281 6.9295631,8.8024175 0 0 0 -6.929811,-8.80256 z"
       id="path4562" />
    <path
       id="path4570"
       transform="scale(0.26458333)"
       d="m 221.64062,414.05664 -29.93359,27.07031 a 2.5009503,2.5009503 0 1 0 3.35156,3.71289 l 32.5625,-29.44531 a 2.5002499,2.5002499 0 0 0 0.78711,-1.33789 z"
       style="color:#000000;font-style:normal;font-variant:normal;font-weight:normal;font-stretch:normal;font-size:medium;line-height:normal;font-family:sans-serif;font-variant-ligatures:normal;font-variant-position:normal;font-variant-caps:normal;font-variant-numeric:normal;font-variant-alternates:normal;font-feature-settings:normal;text-indent:0;text-align:start;text-decoration:none;text-decoration-line:none;text-decoration-style:solid;text-decoration-color:#000000;letter-spacing:normal;word-spacing:normal;text-transform:none;writing-mode:lr-tb;direction:ltr;text-orientation:mixed;dominant-baseline:auto;baseline-shift:baseline;text-anchor:start;white-space:normal;shape-padding:0;clip-rule:nonzero;display:inline;overflow:visible;visibility:visible;opacity:1;isolation:auto;mix-blend-mode:normal;color-interpolation:sRGB;color-interpolation-filters:linearRGB;solid-color:#000000;solid-opacity:1;vector-effect:none;fill:#000000;fill-opacity:1;fill-rule:nonzero;stroke:none;stroke-width:5;stroke-linecap:round;stroke-linejoin:miter;stroke-miterlimit:4;stroke-dasharray:none;stroke-dashoffset:0;stroke-opacity:1;color-rendering:auto;image-rendering:auto;shape-rendering:auto;text-rendering:auto;enable-background:accumulate" />
    <path
       id="path4598"
       d="m 50.513248,149.56177 0.03275,-5.43065"
       style="fill:none;stroke:#000000;stroke-width:1.32291663;stroke-linecap:round;stroke-linejoin:miter;stroke-miterlimit:4;stroke-dasharray:none;stroke-opacity:1" />
    <path
       id="path4617"
       d="m 80.904811,147.65666 3.898062,-3.78129"
       style="fill:none;stroke:#000000;stroke-width:1.32291663;stroke-linecap:butt;stroke-linejoin:miter;stroke-miterlimit:4;stroke-dasharray:1.32291667, 1.32291667;stroke-dashoffset:0;stroke-opacity:1" />
    <path
       style="fill:none;stroke:#000000;stroke-width:1.32291663;stroke-linecap:butt;stroke-linejoin:miter;stroke-miterlimit:4;stroke-dasharray:1.32291667, 1.32291667;stroke-dashoffset:0;stroke-opacity:1"
       d="m 80.904811,147.65666 3.898062,-3.78129"
       id="path846" />
    <path
       id="path4621"
       d="m 47.265654,180.42535 3.50425,-4.14889"
       style="fill:none;stroke:#000000;stroke-width:1.32291663;stroke-linecap:butt;stroke-linejoin:miter;stroke-miterlimit:4;stroke-dasharray:1.32291667, 1.32291667;stroke-dashoffset:0;stroke-opacity:1" />
    <path
       style="fill:none;stroke:#000000;stroke-width:1.32291663;stroke-linecap:butt;stroke-linejoin:miter;stroke-miterlimit:4;stroke-dasharray:none;stroke-dashoffset:0;stroke-opacity:1"
       d="m 47.718863,147.42579 2.91665,-3.37112"
       id="path4594" />
    <path
       style="fill:none;stroke:#000000;stroke-width:1.32291663;stroke-linecap:butt;stroke-linejoin:miter;stroke-miterlimit:4;stroke-dasharray:1.32291667, 1.32291667;stroke-dashoffset:0;stroke-opacity:1"
       d="m 88.184078,148.12513 -3.381205,-4.24976"
       id="path4619" />
    <path
       id="path848"
       d="m 88.184078,148.12513 -3.381205,-4.24976"
       style="fill:none;stroke:#000000;stroke-width:1.32291663;stroke-linecap:butt;stroke-linejoin:miter;stroke-miterlimit:4;stroke-dasharray:1.32291667, 1.32291667;stroke-dashoffset:0;stroke-opacity:1" />
    <path
       style="fill:none;stroke:#000000;stroke-width:1.32291663;stroke-linecap:butt;stroke-linejoin:miter;stroke-miterlimit:4;stroke-dasharray:1.32291667, 1.32291667;stroke-dashoffset:0;stroke-opacity:1"
       d="m 54.55552,180.17031 -3.785616,-3.89385"
       id="path4623" />
    <path
       id="path4588"
       d="m 53.537319,147.42222 -3.069104,-3.36589"
       style="fill:none;stroke:#000000;stroke-width:1.32291663;stroke-linecap:butt;stroke-linejoin:miter;stroke-miterlimit:4;stroke-dasharray:none;stroke-dashoffset:0;stroke-opacity:1" />
    <path
       id="path4566"
       transform="scale(0.26458333)"
       d="m 285.32031,414.05664 a 2.5002499,2.5002499 0 0 0 0.82422,2.37109 l 32.86328,29.10547 a 2.5002499,2.5002499 0 1 0 3.31446,-3.74218 l -31.3125,-27.73438 z"
       style="color:#000000;font-style:normal;font-variant:normal;font-weight:normal;font-stretch:normal;font-size:medium;line-height:normal;font-family:sans-serif;font-variant-ligatures:normal;font-variant-position:normal;font-variant-caps:normal;font-variant-numeric:normal;font-variant-alternates:normal;font-feature-settings:normal;text-indent:0;text-align:start;text-decoration:none;text-decoration-line:none;text-decoration-style:solid;text-decoration-color:#000000;letter-spacing:normal;word-spacing:normal;text-transform:none;writing-mode:lr-tb;direction:ltr;text-orientation:mixed;dominant-baseline:auto;baseline-shift:baseline;text-anchor:start;white-space:normal;shape-padding:0;clip-rule:nonzero;display:inline;overflow:visible;visibility:visible;opacity:1;isolation:auto;mix-blend-mode:normal;color-interpolation:sRGB;color-interpolation-filters:linearRGB;solid-color:#000000;solid-opacity:1;vector-effect:none;fill:#000000;fill-opacity:1;fill-rule:nonzero;stroke:none;stroke-width:5;stroke-linecap:round;stroke-linejoin:miter;stroke-miterlimit:4;stroke-dasharray:none;stroke-dashoffset:0;stroke-opacity:1;color-rendering:auto;image-rendering:auto;shape-rendering:auto;text-rendering:auto;enable-background:accumulate" />
    <path
       id="path4590"
       d="m 63.367543,163.67778 c 0,0 21.585158,2.14745 21.43533,-19.80241"
       style="fill:none;stroke:#000000;stroke-width:1.32291663;stroke-linecap:butt;stroke-linejoin:miter;stroke-miterlimit:4;stroke-dasharray:1.32291667, 1.32291667;stroke-dashoffset:0;stroke-opacity:1" />
    <path
       id="path4600"
       d="m 50.85406,182.03697 0.02322,-6.31887"
       style="fill:none;stroke:#000000;stroke-width:1.32291663;stroke-linecap:butt;stroke-linejoin:miter;stroke-miterlimit:4;stroke-dasharray:1.32291667, 1.32291667;stroke-dashoffset:0;stroke-opacity:1" />
  </g>
</svg>
